<svg id="SvgjsSvg1006" width="842" height="596" xmlns="http://www.w3.org/2000/svg" version="1.1" xmlns:xlink="http://www.w3.org/1999/xlink" xmlns:svgjs="http://svgjs.com/svgjs"><defs id="SvgjsDefs1007"/><circle id="SvgjsCircle1008" r="236.39999999999998" cx="35.083333333333336" cy="194.42466496796973" fill="transparent" fill-opacity="1" stroke="rgba(75, 134, 15, 0.8)" stroke-opacity="0.3" stroke-width="1" nr="1"/><circle id="SvgjsCircle1009" r="118.19999999999999" cx="35.083333333333336" cy="194.42466496796973" fill="#8ff065" fill-opacity="0.2" stroke-opacity="0.3" stroke-width="0" nr="1"/><polygon id="SvgjsPolygon1010" points="-161.91666666666666,312.6246649679698 35.08333333333334,-21.327642674893532 232.08333333333334,312.6246649679698" fill="#8ff065" fill-opacity="0.74" stroke="#8ff065" stroke-opacity="1" stroke-width="1" transform="matrix(-0.6156614753256581,-0.7880107536067221,0.7880107536067221,-0.6156614753256581,-58.08980873243625,262.9647233614319)"/><polygon id="SvgjsPolygon1011" points="-161.91666666666666,312.6246649679698 35.08333333333334,-21.327642674893532 232.08333333333334,312.6246649679698" fill="transparent" fill-opacity="1" stroke="hsl(61.89999999999998, 82.3%, 66.8%)" stroke-opacity="0.4" stroke-width="1" transform="matrix(-0.6772276228582239,-0.8668118289673944,0.8668118289673944,-0.6772276228582239,-67.40712243038692,274.69634489038515)"/><polygon id="SvgjsPolygon1012" points="-161.91666666666666,312.6246649679698 35.08333333333334,-21.327642674893532 232.08333333333334,312.6246649679698" fill="transparent" fill-opacity="1" stroke="hsl(81.89999999999998, 82.3%, 66.8%)" stroke-opacity="0.4" stroke-width="0.5" transform="matrix(-0.7387937703907896,-0.9456129043280666,0.9456129043280666,-0.7387937703907896,-76.72443612833756,286.4279664193384)"/><circle id="SvgjsCircle1013" r="212.4" cx="105.25" cy="171.01461254502686" fill="transparent" fill-opacity="1" stroke="rgba(42, 138, 37, 0.8)" stroke-opacity="0.3" stroke-width="1" nr="2"/><circle id="SvgjsCircle1014" r="106.2" cx="105.25" cy="171.01461254502686" fill="#6eec83" fill-opacity="0.2" stroke-opacity="0.3" stroke-width="0" nr="2"/><polygon id="SvgjsPolygon1015" points="-71.75,277.21461254502685 105.25,-22.833907519880768 282.25,277.21461254502685" fill="#6eec83" fill-opacity="0.52" stroke="#6eec83" stroke-opacity="1" stroke-width="1" transform="matrix(-0.6560590289905077,-0.7547095802227717,0.7547095802227717,-0.6560590289905077,78.30843458321529,290.06791645633643)"/><polygon id="SvgjsPolygon1016" points="-71.75,277.21461254502685 105.25,-22.833907519880768 282.25,277.21461254502685" fill="transparent" fill-opacity="1" stroke="hsl(89.89999999999998, 76.5%, 67.7%)" stroke-opacity="0.4" stroke-width="1" transform="matrix(-0.7216649318895586,-0.8301805382450489,0.8301805382450489,-0.7216649318895586,75.61427804153683,306.35567276261463)"/><polygon id="SvgjsPolygon1017" points="-71.75,277.21461254502685 105.25,-22.833907519880768 282.25,277.21461254502685" fill="transparent" fill-opacity="1" stroke="hsl(109.89999999999998, 76.5%, 67.7%)" stroke-opacity="0.4" stroke-width="0.5" transform="matrix(-0.7872708347886093,-0.905651496267326,0.905651496267326,-0.7872708347886093,72.92012149985837,322.6434290688928)"/><circle id="SvgjsCircle1018" r="180.6" cx="175.41666666666669" cy="154.02689313342154" fill="transparent" fill-opacity="1" stroke="rgba(51, 189, 111, 0.8)" stroke-opacity="0.3" stroke-width="1" nr="3"/><circle id="SvgjsCircle1019" r="90.3" cx="175.41666666666669" cy="154.02689313342154" fill="#42e6aa" fill-opacity="0.2" stroke-opacity="0.3" stroke-width="0" nr="3"/><polygon id="SvgjsPolygon1020" points="24.916666666666686,244.32689313342155 175.41666666666669,-10.79910839069484 325.9166666666667,244.32689313342155" fill="#42e6aa" fill-opacity="0.35" stroke="#42e6aa" stroke-opacity="1" stroke-width="1" transform="matrix(-0.7771459614569708,-0.6293203910498376,0.6293203910498376,-0.7771459614569708,238.2591243265686,317.89975580972964)"/><polygon id="SvgjsPolygon1021" points="24.916666666666686,244.32689313342155 175.41666666666669,-10.79910839069484 325.9166666666667,244.32689313342155" fill="transparent" fill-opacity="1" stroke="hsl(118.19999999999999, 76.5%, 57.9%)" stroke-opacity="0.4" stroke-width="1" transform="matrix(-0.854860557602668,-0.6922524301548214,0.6922524301548214,-0.854860557602668,244.5433701561371,338.01334265016305)"/><polygon id="SvgjsPolygon1022" points="24.916666666666686,244.32689313342155 175.41666666666669,-10.79910839069484 325.9166666666667,244.32689313342155" fill="transparent" fill-opacity="1" stroke="hsl(138.2, 76.5%, 57.9%)" stroke-opacity="0.4" stroke-width="0.5" transform="matrix(-0.9325751537483649,-0.7551844692598051,0.7551844692598051,-0.9325751537483649,250.82761598570556,358.12692949059647)"/><circle id="SvgjsCircle1023" r="147" cx="245.58333333333334" cy="159.0799376173018" fill="transparent" fill-opacity="1" stroke="rgba(43, 253, 213, 0.8)" stroke-opacity="0.3" stroke-width="1" nr="4"/><circle id="SvgjsCircle1024" r="73.5" cx="245.58333333333334" cy="159.0799376173018" fill="#00e7e9" fill-opacity="0.2" stroke-opacity="0.3" stroke-width="0" nr="4"/><polygon id="SvgjsPolygon1025" points="123.08333333333334,232.5799376173018 245.58333333333334,24.91923870232334 368.08333333333337,232.5799376173018" fill="#00e7e9" fill-opacity="0.21" stroke="#00e7e9" stroke-opacity="1" stroke-width="1" transform="matrix(-0.8290375725550418,-0.5591929034707467,0.5591929034707467,-0.8290375725550418,377.1852904368256,372.81629953621854)"/><polygon id="SvgjsPolygon1026" points="123.08333333333334,232.5799376173018 245.58333333333334,24.91923870232334 368.08333333333337,232.5799376173018" fill="transparent" fill-opacity="1" stroke="hsl(140.5, 100%, 45.6%)" stroke-opacity="0.4" stroke-width="1" transform="matrix(-0.9119413298105461,-0.6151121938178215,0.6151121938178215,-0.9119413298105461,390.3454858928617,397.22297030710115)"/><polygon id="SvgjsPolygon1027" points="123.08333333333334,232.5799376173018 245.58333333333334,24.91923870232334 368.08333333333337,232.5799376173018" fill="transparent" fill-opacity="1" stroke="hsl(160.5, 100%, 45.6%)" stroke-opacity="0.4" stroke-width="0.5" transform="matrix(-0.9948450870660501,-0.671031484164896,0.671031484164896,-0.9948450870660501,403.5056813488977,421.6296410779837)"/><circle id="SvgjsCircle1028" r="124.8" cx="315.75" cy="181.52800020149667" fill="transparent" fill-opacity="1" stroke="rgba(48, 243, 214, 0.8)" stroke-opacity="0.3" stroke-width="1" nr="5"/><circle id="SvgjsCircle1029" r="62.4" cx="315.75" cy="181.52800020149667" fill="#00d2e1" fill-opacity="0.2" stroke-opacity="0.3" stroke-width="0" nr="5"/><polygon id="SvgjsPolygon1030" points="211.75,243.92800020149667 315.75,67.62830479612721 419.75,243.92800020149667" fill="#00d2e1" fill-opacity="0.15000000000000005" stroke="#00d2e1" stroke-opacity="1" stroke-width="1" transform="matrix(-0.819152044288992,-0.5735764363510458,0.5735764363510458,-0.819152044288992,485.0465848075951,464.4908904125734)"/><polygon id="SvgjsPolygon1031" points="211.75,243.92800020149667 315.75,67.62830479612721 419.75,243.92800020149667" fill="transparent" fill-opacity="1" stroke="hsl(143.89999999999998, 99.9%, 44.1%)" stroke-opacity="0.4" stroke-width="1" transform="matrix(-0.9010672487178913,-0.6309340799861505,0.6309340799861505,-0.9010672487178913,501.97624328835457,495.36216497018813)"/><polygon id="SvgjsPolygon1032" points="211.75,243.92800020149667 315.75,67.62830479612721 419.75,243.92800020149667" fill="transparent" fill-opacity="1" stroke="hsl(163.89999999999998, 99.9%, 44.1%)" stroke-opacity="0.4" stroke-width="0.5" transform="matrix(-0.9829824531467903,-0.688291723621255,0.688291723621255,-0.9829824531467903,518.905901769114,526.2334395278028)"/><circle id="SvgjsCircle1033" r="117" cx="385.9166666666667" cy="200.73243567064205" fill="transparent" fill-opacity="1" stroke="rgba(50, 239, 215, 0.8)" stroke-opacity="0.3" stroke-width="1" nr="6"/><circle id="SvgjsCircle1034" r="58.5" cx="385.9166666666667" cy="200.73243567064205" fill="#00cbde" fill-opacity="0.2" stroke-opacity="0.3" stroke-width="0" nr="6"/><polygon id="SvgjsPolygon1035" points="288.4166666666667,259.2324356706421 385.9166666666667,93.95147122810818 483.4166666666667,259.2324356706421" fill="#00cbde" fill-opacity="0.13000000000000003" stroke="#00cbde" stroke-opacity="1" stroke-width="1" transform="matrix(-0.7547095802227719,-0.6560590289905074,0.6560590289905074,-0.7547095802227719,561.3169164309775,563.0516790561871)"/><polygon id="SvgjsPolygon1036" points="288.4166666666667,259.2324356706421 385.9166666666667,93.95147122810818 483.4166666666667,259.2324356706421" fill="transparent" fill-opacity="1" stroke="hsl(145.2, 99.9%, 43.6%)" stroke-opacity="0.4" stroke-width="1" transform="matrix(-0.8301805382450491,-0.7216649318895582,0.7216649318895582,-0.8301805382450491,578.8569424246613,601.6976527784564)"/><polygon id="SvgjsPolygon1037" points="288.4166666666667,259.2324356706421 385.9166666666667,93.95147122810818 483.4166666666667,259.2324356706421" fill="transparent" fill-opacity="1" stroke="hsl(165.20000000000005, 99.9%, 43.6%)" stroke-opacity="0.4" stroke-width="0.5" transform="matrix(-0.9056514962673262,-0.7872708347886088,0.7872708347886088,-0.9056514962673262,596.3969684183448,640.3436265007253)"/><circle id="SvgjsCircle1038" r="112.8" cx="456.08333333333337" cy="199.0367746201974" fill="transparent" fill-opacity="1" stroke="rgba(51, 237, 215, 0.8)" stroke-opacity="0.3" stroke-width="1" nr="7"/><circle id="SvgjsCircle1039" r="56.4" cx="456.08333333333337" cy="199.0367746201974" fill="#00c7dd" fill-opacity="0.2" stroke-opacity="0.3" stroke-width="0" nr="7"/><polygon id="SvgjsPolygon1040" points="362.08333333333337,255.4367746201974 456.08333333333337,96.08897300380578 550.0833333333334,255.4367746201974" fill="#00c7dd" fill-opacity="0.11000000000000001" stroke="#00c7dd" stroke-opacity="1" stroke-width="1" transform="matrix(-0.7071067811865477,-0.7071067811865475,0.7071067811865475,-0.7071067811865477,654.299824621288,622.5456027936235)"/><polygon id="SvgjsPolygon1041" points="362.08333333333337,255.4367746201974 456.08333333333337,96.08897300380578 550.0833333333334,255.4367746201974" fill="transparent" fill-opacity="1" stroke="hsl(145.8, 99.9%, 43.3%)" stroke-opacity="0.4" stroke-width="1" transform="matrix(-0.7778174593052025,-0.7778174593052023,0.7778174593052023,-0.7778174593052025,674.1214742587099,667.2238759941284)"/><polygon id="SvgjsPolygon1042" points="362.08333333333337,255.4367746201974 456.08333333333337,96.08897300380578 550.0833333333334,255.4367746201974" fill="transparent" fill-opacity="1" stroke="hsl(165.79999999999995, 99.9%, 43.3%)" stroke-opacity="0.4" stroke-width="0.5" transform="matrix(-0.8485281374238572,-0.8485281374238569,0.8485281374238569,-0.8485281374238572,693.9431238961317,711.9021491946332)"/><circle id="SvgjsCircle1043" r="109.2" cx="526.25" cy="178" fill="transparent" fill-opacity="1" stroke="rgba(51, 236, 215, 0.8)" stroke-opacity="0.3" stroke-width="1" nr="8"/><circle id="SvgjsCircle1044" r="54.6" cx="526.25" cy="178" fill="#00c4db" fill-opacity="0.2" stroke-opacity="0.3" stroke-width="0" nr="8"/><polygon id="SvgjsPolygon1045" points="435.25,232.60000000000002 526.25,78.33776652030173 617.25,232.60000000000002" fill="#00c4db" fill-opacity="0.1" stroke="#00c4db" stroke-opacity="1" stroke-width="1" transform="matrix(-0.6946583704589975,-0.7193398003386509,0.7193398003386509,-0.6946583704589975,779.9790090838593,642.0192211864237)"/><polygon id="SvgjsPolygon1046" points="435.25,232.60000000000002 526.25,78.33776652030173 617.25,232.60000000000002" fill="transparent" fill-opacity="1" stroke="hsl(146.5, 99.8%, 43%)" stroke-opacity="0.4" stroke-width="1" transform="matrix(-0.7641242075048973,-0.7912737803725161,0.7912737803725161,-0.7641242075048973,805.3519099922453,690.6742545721561)"/><polygon id="SvgjsPolygon1047" points="435.25,232.60000000000002 526.25,78.33776652030173 617.25,232.60000000000002" fill="transparent" fill-opacity="1" stroke="hsl(166.5, 99.8%, 43%)" stroke-opacity="0.4" stroke-width="0.5" transform="matrix(-0.833590044550797,-0.863207760406381,0.863207760406381,-0.833590044550797,830.7248109006312,739.3292879578881)"/><circle id="SvgjsCircle1048" r="105" cx="596.4166666666667" cy="156.9632253798026" fill="transparent" fill-opacity="1" stroke="rgba(52, 234, 215, 0.8)" stroke-opacity="0.3" stroke-width="1" nr="9"/><circle id="SvgjsCircle1049" r="52.5" cx="596.4166666666667" cy="156.9632253798026" fill="#00c0da" fill-opacity="0.2" stroke-opacity="0.3" stroke-width="0" nr="9"/><polygon id="SvgjsPolygon1050" points="508.91666666666674,209.46322537980262 596.4166666666667,61.134154726246564 683.9166666666667,209.46322537980262" fill="#00c0da" fill-opacity="0.11000000000000001" stroke="#00c0da" stroke-opacity="1" stroke-width="1" transform="matrix(-0.7547095802227719,-0.6560590289905074,0.6560590289905074,-0.7547095802227719,957.7741200222019,628.6944514751387)"/><polygon id="SvgjsPolygon1051" points="508.91666666666674,209.46322537980262 596.4166666666667,61.134154726246564 683.9166666666667,209.46322537980262" fill="transparent" fill-opacity="1" stroke="hsl(147.2, 99.8%, 42.7%)" stroke-opacity="0.4" stroke-width="1" transform="matrix(-0.8301805382450491,-0.7216649318895582,0.7216649318895582,-0.8301805382450491,993.9098648491292,678.0340275430628)"/><polygon id="SvgjsPolygon1052" points="508.91666666666674,209.46322537980262 596.4166666666667,61.134154726246564 683.9166666666667,209.46322537980262" fill="transparent" fill-opacity="1" stroke="hsl(167.20000000000005, 99.8%, 42.7%)" stroke-opacity="0.4" stroke-width="0.5" transform="matrix(-0.9056514962673262,-0.7872708347886088,0.7872708347886088,-0.9056514962673262,1030.0456096760563,727.3736036109868)"/><circle id="SvgjsCircle1053" r="100.8" cx="666.5833333333334" cy="155.26756432935795" fill="transparent" fill-opacity="1" stroke="rgba(53, 232, 216, 0.8)" stroke-opacity="0.3" stroke-width="1" nr="10"/><circle id="SvgjsCircle1054" r="50.4" cx="666.5833333333334" cy="155.26756432935795" fill="#00bcd8" fill-opacity="0.2" stroke-opacity="0.3" stroke-width="0" nr="10"/><polygon id="SvgjsPolygon1055" points="582.5833333333334,205.66756432935796 666.5833333333334,63.271656501944165 750.5833333333334,205.66756432935796" fill="#00bcd8" fill-opacity="0.12000000000000002" stroke="#00bcd8" stroke-opacity="1" stroke-width="1" transform="matrix(-0.838670567945424,-0.5446390350150271,0.5446390350150271,-0.838670567945424,1152.389716812729,610.292617448019)"/><polygon id="SvgjsPolygon1056" points="582.5833333333334,205.66756432935796 666.5833333333334,63.271656501944165 750.5833333333334,205.66756432935796" fill="transparent" fill-opacity="1" stroke="hsl(147.89999999999998, 99.8%, 42.5%)" stroke-opacity="0.4" stroke-width="1" transform="matrix(-0.9225376247399665,-0.5991029385165298,0.5991029385165298,-0.9225376247399665,1200.9703571951736,657.8749175991929)"/><polygon id="SvgjsPolygon1057" points="582.5833333333334,205.66756432935796 666.5833333333334,63.271656501944165 750.5833333333334,205.66756432935796" fill="transparent" fill-opacity="1" stroke="hsl(167.89999999999998, 99.8%, 42.5%)" stroke-opacity="0.4" stroke-width="0.5" transform="matrix(-1.006404681534509,-0.6535668420180325,0.6535668420180325,-1.006404681534509,1249.5509975776185,705.4572177503669)"/><circle id="SvgjsCircle1058" r="96.6" cx="736.75" cy="174.47199979850333" fill="transparent" fill-opacity="1" stroke="rgba(54, 229, 216, 0.8)" stroke-opacity="0.3" stroke-width="1" nr="11"/><circle id="SvgjsCircle1059" r="48.3" cx="736.75" cy="174.47199979850333" fill="#00b8d7" fill-opacity="0.2" stroke-opacity="0.3" stroke-width="0" nr="11"/><polygon id="SvgjsPolygon1060" points="656.25,222.77199979850334 736.75,86.30925479723179 817.25,222.77199979850334" fill="#00b8d7" fill-opacity="0.14000000000000004" stroke="#00b8d7" stroke-opacity="1" stroke-width="1" transform="matrix(-0.9205048534524404,-0.39073112848927355,0.39073112848927355,-0.9205048534524404,1354.5481173811895,584.6671822130037)"/><polygon id="SvgjsPolygon1061" points="656.25,222.77199979850334 736.75,86.30925479723179 817.25,222.77199979850334" fill="transparent" fill-opacity="1" stroke="hsl(148.60000000000002, 99.8%, 42.2%)" stroke-opacity="0.4" stroke-width="1" transform="matrix(-1.0125553387976844,-0.42980424133820094,0.42980424133820094,-1.0125553387976844,1416.3279291193085,627.6798377817162)"/><polygon id="SvgjsPolygon1062" points="656.25,222.77199979850334 736.75,86.30925479723179 817.25,222.77199979850334" fill="transparent" fill-opacity="1" stroke="hsl(168.60000000000002, 99.8%, 42.2%)" stroke-opacity="0.4" stroke-width="0.5" transform="matrix(-1.1046058241429284,-0.4688773541871282,0.4688773541871282,-1.1046058241429284,1478.1077408574274,670.6924933504287)"/><circle id="SvgjsCircle1063" r="90.6" cx="806.9166666666667" cy="196.9200623826982" fill="transparent" fill-opacity="1" stroke="rgba(55, 227, 216, 0.8)" stroke-opacity="0.3" stroke-width="1" nr="12"/><circle id="SvgjsCircle1064" r="45.3" cx="806.9166666666667" cy="196.9200623826982" fill="#00b3d5" fill-opacity="0.2" stroke-opacity="0.3" stroke-width="0" nr="12"/><polygon id="SvgjsPolygon1065" points="731.4166666666667,242.22006238269822 806.9166666666667,114.23326427591557 882.4166666666667,242.22006238269822" fill="#00b3d5" fill-opacity="0.13000000000000003" stroke="#00b3d5" stroke-opacity="1" stroke-width="1" transform="matrix(-0.984807753012208,-0.17364817766693047,0.17364817766693047,-0.984807753012208,1570.6257614030224,493.86527212879514)"/><polygon id="SvgjsPolygon1066" points="731.4166666666667,242.22006238269822 806.9166666666667,114.23326427591557 882.4166666666667,242.22006238269822" fill="transparent" fill-opacity="1" stroke="hsl(149.60000000000002, 99.7%, 41.8%)" stroke-opacity="0.4" stroke-width="1" transform="matrix(-1.0832885283134288,-0.19101299543362354,0.19101299543362354,-1.0832885283134288,1646.9966688421528,525.4291331734618)"/><polygon id="SvgjsPolygon1067" points="731.4166666666667,242.22006238269822 806.9166666666667,114.23326427591557 882.4166666666667,242.22006238269822" fill="transparent" fill-opacity="1" stroke="hsl(169.60000000000002, 99.7%, 41.8%)" stroke-opacity="0.4" stroke-width="0.5" transform="matrix(-1.1817693036146495,-0.20837781320031656,0.20837781320031656,-1.1817693036146495,1723.3675762812832,556.9929942181284)"/><circle id="SvgjsCircle1068" r="85.2" cx="35.083333333333336" cy="434.3410905215903" fill="transparent" fill-opacity="1" stroke="rgba(57, 224, 216, 0.8)" stroke-opacity="0.3" stroke-width="1" nr="13"/><circle id="SvgjsCircle1069" r="42.6" cx="35.083333333333336" cy="434.3410905215903" fill="#00add3" fill-opacity="0.2" stroke-opacity="0.3" stroke-width="0" nr="13"/><polygon id="SvgjsPolygon1070" points="-35.916666666666664,476.9410905215903 35.083333333333336,356.58264461984766 106.08333333333334,476.9410905215903" fill="#00add3" fill-opacity="0.11000000000000001" stroke="#00add3" stroke-opacity="1" stroke-width="1" transform="matrix(-0.9961946980917455,0.08715574274765864,-0.08715574274765864,-0.9961946980917455,106.35635189845058,828.8801240675854)"/><polygon id="SvgjsPolygon1071" points="-35.916666666666664,476.9410905215903 35.083333333333336,356.58264461984766 106.08333333333334,476.9410905215903" fill="transparent" fill-opacity="1" stroke="hsl(150.7, 99.7%, 41.4%)" stroke-opacity="0.4" stroke-width="1" transform="matrix(-1.0958141679009201,0.0958713170224245,-0.0958713170224245,-1.0958141679009201,113.48365388211889,870.0919493405548)"/><polygon id="SvgjsPolygon1072" points="-35.916666666666664,476.9410905215903 35.083333333333336,356.58264461984766 106.08333333333334,476.9410905215903" fill="transparent" fill-opacity="1" stroke="hsl(170.70000000000005, 99.7%, 41.4%)" stroke-opacity="0.4" stroke-width="0.5" transform="matrix(-1.1954336377100947,0.10458689129719036,-0.10458689129719036,-1.1954336377100947,120.61095586578719,911.3037746135244)"/><circle id="SvgjsCircle1073" r="79.2" cx="105.25" cy="442.74981241501115" fill="transparent" fill-opacity="1" stroke="rgba(58, 221, 217, 0.8)" stroke-opacity="0.3" stroke-width="1" nr="14"/><circle id="SvgjsCircle1074" r="39.6" cx="105.25" cy="442.74981241501115" fill="#00a8d1" fill-opacity="0.2" stroke-opacity="0.3" stroke-width="0" nr="14"/><polygon id="SvgjsPolygon1075" points="39.25,482.3498124150112 105.25,370.4673134077575 171.25,482.3498124150112" fill="#00a8d1" fill-opacity="0.1" stroke="#00a8d1" stroke-opacity="1" stroke-width="1" transform="matrix(-0.9510565162951535,0.3090169943749475,-0.3090169943749475,-0.9510565162951535,337.1161928119777,799.4231791490115)"/><polygon id="SvgjsPolygon1076" points="39.25,482.3498124150112 105.25,370.4673134077575 171.25,482.3498124150112" fill="transparent" fill-opacity="1" stroke="hsl(151.7, 99.6%, 41%)" stroke-opacity="0.4" stroke-width="1" transform="matrix(-1.0461621679246689,0.3399186938124423,-0.3399186938124423,-1.0461621679246689,360.3028120931755,836.7246401303188)"/><polygon id="SvgjsPolygon1077" points="39.25,482.3498124150112 105.25,370.4673134077575 171.25,482.3498124150112" fill="transparent" fill-opacity="1" stroke="hsl(171.70000000000005, 99.6%, 41%)" stroke-opacity="0.4" stroke-width="0.5" transform="matrix(-1.141267819554184,0.370820393249937,-0.370820393249937,-1.141267819554184,383.4894313743732,874.0261011116262)"/><circle id="SvgjsCircle1078" r="70.8" cx="175.41666666666669" cy="428.4036709136786" fill="transparent" fill-opacity="1" stroke="rgba(60, 217, 217, 0.8)" stroke-opacity="0.3" stroke-width="1" nr="15"/><circle id="SvgjsCircle1079" r="35.4" cx="175.41666666666669" cy="428.4036709136786" fill="#00a0ce" fill-opacity="0.2" stroke-opacity="0.3" stroke-width="0" nr="15"/><polygon id="SvgjsPolygon1080" points="116.41666666666669,463.8036709136786 175.41666666666669,363.7874975587094 234.41666666666669,463.8036709136786" fill="#00a0ce" fill-opacity="0.1" stroke="#00a0ce" stroke-opacity="1" stroke-width="1" transform="matrix(-0.8386705679454242,0.5446390350150269,-0.5446390350150269,-0.8386705679454242,547.9026970726168,665.2950137244078)"/><polygon id="SvgjsPolygon1081" points="116.41666666666669,463.8036709136786 175.41666666666669,363.7874975587094 234.41666666666669,463.8036709136786" fill="transparent" fill-opacity="1" stroke="hsl(153.29999999999995, 99.6%, 40.4%)" stroke-opacity="0.4" stroke-width="1" transform="matrix(-0.9225376247399667,0.5991029385165296,-0.5991029385165296,-0.9225376247399667,585.1512999860552,690.4449557706769)"/><polygon id="SvgjsPolygon1082" points="116.41666666666669,463.8036709136786 175.41666666666669,363.7874975587094 234.41666666666669,463.8036709136786" fill="transparent" fill-opacity="1" stroke="hsl(173.29999999999995, 99.6%, 40.4%)" stroke-opacity="0.4" stroke-width="0.5" transform="matrix(-1.006404681534509,0.6535668420180322,-0.6535668420180322,-1.006404681534509,622.3999028994936,715.5948978169456)"/><circle id="SvgjsCircle1083" r="57.599999999999994" cx="245.58333333333334" cy="404.4924423532965" fill="transparent" fill-opacity="1" stroke="rgba(63, 211, 218, 0.8)" stroke-opacity="0.3" stroke-width="1" nr="16"/><circle id="SvgjsCircle1084" r="28.799999999999997" cx="245.58333333333334" cy="404.4924423532965" fill="#0194c9" fill-opacity="0.2" stroke-opacity="0.3" stroke-width="0" nr="16"/><polygon id="SvgjsPolygon1085" points="197.58333333333334,433.2924423532965 245.58333333333334,351.9233521662029 293.58333333333337,433.2924423532965" fill="#0194c9" fill-opacity="0.1" stroke="#0194c9" stroke-opacity="1" stroke-width="1" transform="matrix(-0.694658370458997,0.7193398003386514,-0.7193398003386514,-0.694658370458997,698.5983405152122,488.6783876003921)"/><polygon id="SvgjsPolygon1086" points="197.58333333333334,433.2924423532965 245.58333333333334,351.9233521662029 293.58333333333337,433.2924423532965" fill="transparent" fill-opacity="1" stroke="hsl(155.89999999999998, 99.5%, 39.5%)" stroke-opacity="0.4" stroke-width="1" transform="matrix(-0.7641242075048968,0.7912737803725166,-0.7912737803725166,-0.7641242075048968,743.899840979087,498.2854368706853)"/><polygon id="SvgjsPolygon1087" points="197.58333333333334,433.2924423532965 245.58333333333334,351.9233521662029 293.58333333333337,433.2924423532965" fill="transparent" fill-opacity="1" stroke="hsl(175.89999999999998, 99.5%, 39.5%)" stroke-opacity="0.4" stroke-width="0.5" transform="matrix(-0.8335900445507964,0.8632077604063817,-0.8632077604063817,-0.8335900445507964,789.2013414429617,507.89248614097835)"/><circle id="SvgjsCircle1088" r="55.199999999999996" cx="315.75" cy="393" fill="transparent" fill-opacity="1" stroke="rgba(63, 210, 218, 0.8)" stroke-opacity="0.3" stroke-width="1" nr="17"/><circle id="SvgjsCircle1089" r="27.599999999999998" cx="315.75" cy="393" fill="#0191c8" fill-opacity="0.2" stroke-opacity="0.3" stroke-width="0" nr="17"/><polygon id="SvgjsPolygon1090" points="269.75,420.6 315.75,342.621288570702 361.75,420.6" fill="#0191c8" fill-opacity="0.1" stroke="#0191c8" stroke-opacity="1" stroke-width="1" transform="matrix(-0.7071067811865475,0.7071067811865476,-0.7071067811865476,-0.7071067811865475,808.8584385227497,428.1811476829371)"/><polygon id="SvgjsPolygon1091" points="269.75,420.6 315.75,342.621288570702 361.75,420.6" fill="transparent" fill-opacity="1" stroke="hsl(156.39999999999998, 99.5%, 39.3%)" stroke-opacity="0.4" stroke-width="1" transform="matrix(-0.7778174593052023,0.7778174593052024,-0.7778174593052024,-0.7778174593052023,858.1692823750247,432.83819830328156)"/><polygon id="SvgjsPolygon1092" points="269.75,420.6 315.75,342.621288570702 361.75,420.6" fill="transparent" fill-opacity="1" stroke="hsl(176.39999999999998, 99.5%, 39.3%)" stroke-opacity="0.4" stroke-width="0.5" transform="matrix(-0.8485281374238569,0.848528137423857,-0.848528137423857,-0.8485281374238569,907.4801262272996,437.49524892362604)"/><circle id="SvgjsCircle1093" r="67.2" cx="385.9166666666667" cy="404.4924423532965" fill="transparent" fill-opacity="1" stroke="rgba(61, 215, 218, 0.8)" stroke-opacity="0.3" stroke-width="1" nr="18"/><circle id="SvgjsCircle1094" r="33.6" cx="385.9166666666667" cy="404.4924423532965" fill="#019ccc" fill-opacity="0.2" stroke-opacity="0.3" stroke-width="0" nr="18"/><polygon id="SvgjsPolygon1095" points="329.9166666666667,438.0924423532965 385.9166666666667,343.1618371350207 441.9166666666667,438.0924423532965" fill="#019ccc" fill-opacity="0.1" stroke="#019ccc" stroke-opacity="1" stroke-width="1" transform="matrix(-0.981627183447664,0.19080899537654497,-0.19080899537654497,-0.981627183447664,839.278108484976,700.4409822218886)"/><polygon id="SvgjsPolygon1096" points="329.9166666666667,438.0924423532965 385.9166666666667,343.1618371350207 441.9166666666667,438.0924423532965" fill="transparent" fill-opacity="1" stroke="hsl(154.10000000000002, 99.6%, 40.1%)" stroke-opacity="0.4" stroke-width="1" transform="matrix(-1.0797899017924304,0.2098898949141995,-0.2098898949141995,-1.0797899017924304,884.6142536840596,731.4223668210306)"/><polygon id="SvgjsPolygon1097" points="329.9166666666667,438.0924423532965 385.9166666666667,343.1618371350207 441.9166666666667,438.0924423532965" fill="transparent" fill-opacity="1" stroke="hsl(174.10000000000002, 99.6%, 40.1%)" stroke-opacity="0.4" stroke-width="0.5" transform="matrix(-1.1779526201371968,0.22897079445185395,-0.22897079445185395,-1.1779526201371968,929.9503988831432,762.4037514201725)"/><circle id="SvgjsCircle1098" r="88.2" cx="456.08333333333337" cy="428.4036709136786" fill="transparent" fill-opacity="1" stroke="rgba(56, 226, 216, 0.8)" stroke-opacity="0.3" stroke-width="1" nr="19"/><circle id="SvgjsCircle1099" r="44.1" cx="456.08333333333337" cy="428.4036709136786" fill="#00b0d4" fill-opacity="0.2" stroke-opacity="0.3" stroke-width="0" nr="19"/><polygon id="SvgjsPolygon1100" points="382.58333333333337,472.5036709136786 456.08333333333337,347.90725156469153 529.5833333333334,472.5036709136786" fill="#00b0d4" fill-opacity="0.11000000000000001" stroke="#00b0d4" stroke-opacity="1" stroke-width="1" transform="matrix(-0.7880107536067222,-0.6156614753256578,0.6156614753256578,-0.7880107536067222,562.9341970057774,1014.2447076835865)"/><polygon id="SvgjsPolygon1101" points="382.58333333333337,472.5036709136786 456.08333333333337,347.90725156469153 529.5833333333334,472.5036709136786" fill="transparent" fill-opacity="1" stroke="hsl(150.10000000000002, 99.7%, 41.6%)" stroke-opacity="0.4" stroke-width="1" transform="matrix(-0.8668118289673945,-0.6772276228582237,0.6772276228582237,-0.8668118289673945,573.619283881648,1074.6486324924726)"/><polygon id="SvgjsPolygon1102" points="382.58333333333337,472.5036709136786 456.08333333333337,347.90725156469153 529.5833333333334,472.5036709136786" fill="transparent" fill-opacity="1" stroke="hsl(170.10000000000002, 99.7%, 41.6%)" stroke-opacity="0.4" stroke-width="0.5" transform="matrix(-0.9456129043280667,-0.7387937703907894,0.7387937703907894,-0.9456129043280667,584.3043707575188,1135.0525573013583)"/><circle id="SvgjsCircle1103" r="108" cx="526.25" cy="442.74981241501115" fill="transparent" fill-opacity="1" stroke="rgba(52, 235, 215, 0.8)" stroke-opacity="0.3" stroke-width="1" nr="20"/><circle id="SvgjsCircle1104" r="54" cx="526.25" cy="442.74981241501115" fill="#00c3db" fill-opacity="0.2" stroke-opacity="0.3" stroke-width="0" nr="20"/><polygon id="SvgjsPolygon1105" points="436.25,496.74981241501115 526.25,344.18276831421065 616.25,496.74981241501115" fill="#00c3db" fill-opacity="0.11000000000000001" stroke="#00c3db" stroke-opacity="1" stroke-width="1" transform="matrix(-0.46947156278589075,-0.882947592858927,0.882947592858927,-0.46947156278589075,402.0597083376557,1082.5144319077262)"/><polygon id="SvgjsPolygon1106" points="436.25,496.74981241501115 526.25,344.18276831421065 616.25,496.74981241501115" fill="transparent" fill-opacity="1" stroke="hsl(146.7, 99.8%, 43%)" stroke-opacity="0.4" stroke-width="1" transform="matrix(-0.5164187190644799,-0.9712423521448198,0.9712423521448198,-0.5164187190644799,389.6406791714213,1148.7192457650026)"/><polygon id="SvgjsPolygon1107" points="436.25,496.74981241501115 526.25,344.18276831421065 616.25,496.74981241501115" fill="transparent" fill-opacity="1" stroke="hsl(166.70000000000005, 99.8%, 43%)" stroke-opacity="0.4" stroke-width="0.5" transform="matrix(-0.5633658753430689,-1.0595371114307124,1.0595371114307124,-0.5633658753430689,377.2216500051869,1214.9240596222792)"/><circle id="SvgjsCircle1108" r="121.19999999999999" cx="596.4166666666667" cy="434.3410905215903" fill="transparent" fill-opacity="1" stroke="rgba(49, 241, 214, 0.8)" stroke-opacity="0.3" stroke-width="1" nr="21"/><circle id="SvgjsCircle1109" r="60.599999999999994" cx="596.4166666666667" cy="434.3410905215903" fill="#00cfe0" fill-opacity="0.2" stroke-opacity="0.3" stroke-width="0" nr="21"/><polygon id="SvgjsPolygon1110" points="495.41666666666674,494.9410905215903 596.4166666666667,323.7269632529142 697.4166666666667,494.9410905215903" fill="#00cfe0" fill-opacity="0.1" stroke="#00cfe0" stroke-opacity="1" stroke-width="1" transform="matrix(-0.7431448254773942,-0.6691306063588582,0.6691306063588582,-0.7431448254773942,765.7427073960695,1112.6091457627333)"/><polygon id="SvgjsPolygon1111" points="495.41666666666674,494.9410905215903 596.4166666666667,323.7269632529142 697.4166666666667,494.9410905215903" fill="transparent" fill-opacity="1" stroke="hsl(144.5, 99.9%, 43.9%)" stroke-opacity="0.4" stroke-width="1" transform="matrix(-0.8174593080251338,-0.7360436669947441,0.7360436669947441,-0.8174593080251338,782.6753109603835,1182.9366573238701)"/><polygon id="SvgjsPolygon1112" points="495.41666666666674,494.9410905215903 596.4166666666667,323.7269632529142 697.4166666666667,494.9410905215903" fill="transparent" fill-opacity="1" stroke="hsl(164.5, 99.9%, 43.9%)" stroke-opacity="0.4" stroke-width="0.5" transform="matrix(-0.8917737905728731,-0.8029567276306299,0.8029567276306299,-0.8917737905728731,799.6079145246974,1253.2641688850065)"/><circle id="SvgjsCircle1113" r="127.8" cx="666.5833333333334" cy="410.90844536341933" fill="transparent" fill-opacity="1" stroke="rgba(47, 244, 214, 0.8)" stroke-opacity="0.3" stroke-width="1" nr="22"/><circle id="SvgjsCircle1114" r="63.9" cx="666.5833333333334" cy="410.90844536341933" fill="#00d5e2" fill-opacity="0.2" stroke-opacity="0.3" stroke-width="0" nr="22"/><polygon id="SvgjsPolygon1115" points="560.0833333333334,474.8084453634193 666.5833333333334,294.2707765108054 773.0833333333334,474.8084453634193" fill="#00d5e2" fill-opacity="0.1" stroke="#00d5e2" stroke-opacity="1" stroke-width="1" transform="matrix(0.40673664307580054,-0.9135454576426008,0.9135454576426008,0.40673664307580054,44.16503827455517,837.0874186973301)"/><polygon id="SvgjsPolygon1116" points="560.0833333333334,474.8084453634193 666.5833333333334,294.2707765108054 773.0833333333334,474.8084453634193" fill="transparent" fill-opacity="1" stroke="hsl(143.39999999999998, 100%, 44.3%)" stroke-opacity="0.4" stroke-width="1" transform="matrix(0.4474103073833806,-1.004900003406861,1.004900003406861,0.4474103073833806,-18.076789196817572,882.3421993854225)"/><polygon id="SvgjsPolygon1117" points="560.0833333333334,474.8084453634193 666.5833333333334,294.2707765108054 773.0833333333334,474.8084453634193" fill="transparent" fill-opacity="1" stroke="hsl(163.39999999999998, 100%, 44.3%)" stroke-opacity="0.4" stroke-width="0.5" transform="matrix(0.4880839716909606,-1.0962545491711209,1.0962545491711209,0.4880839716909606,-80.31861666819009,927.5969800735148)"/><circle id="SvgjsCircle1118" r="127.19999999999999" cx="736.75" cy="393.99574283374085" fill="transparent" fill-opacity="1" stroke="rgba(47, 244, 214, 0.8)" stroke-opacity="0.3" stroke-width="1" nr="23"/><circle id="SvgjsCircle1119" r="63.599999999999994" cx="736.75" cy="393.99574283374085" fill="#00d4e2" fill-opacity="0.2" stroke-opacity="0.3" stroke-width="0" nr="23"/><polygon id="SvgjsPolygon1120" points="630.75,457.59574283374087 736.75,277.90566867057584 842.75,457.59574283374087" fill="#00d4e2" fill-opacity="0.1" stroke="#00d4e2" stroke-opacity="1" stroke-width="1" transform="matrix(-0.052335956242944306,-0.9986295347545738,0.9986295347545738,-0.052335956242944306,408.06180341363324,1122.7375962779045)"/><polygon id="SvgjsPolygon1121" points="630.75,457.59574283374087 736.75,277.90566867057584 842.75,457.59574283374087" fill="transparent" fill-opacity="1" stroke="hsl(143.5, 99.9%, 44.3%)" stroke-opacity="0.4" stroke-width="1" transform="matrix(-0.05756955186723874,-1.0984924882300313,1.0984924882300313,-0.05756955186723874,375.19298375499653,1198.2362857152652)"/><polygon id="SvgjsPolygon1122" points="630.75,457.59574283374087 736.75,277.90566867057584 842.75,457.59574283374087" fill="transparent" fill-opacity="1" stroke="hsl(163.5, 99.9%, 44.3%)" stroke-opacity="0.4" stroke-width="0.5" transform="matrix(-0.06280314749153317,-1.1983554417054885,1.1983554417054885,-0.06280314749153317,342.32416409635994,1273.7349751526258)"/><circle id="SvgjsCircle1123" r="118.19999999999999" cx="806.9166666666667" cy="399.1524436414174" fill="transparent" fill-opacity="1" stroke="rgba(49, 240, 214, 0.8)" stroke-opacity="0.3" stroke-width="1" nr="24"/><circle id="SvgjsCircle1124" r="59.099999999999994" cx="806.9166666666667" cy="399.1524436414174" fill="#00ccdf" fill-opacity="0.2" stroke-opacity="0.3" stroke-width="0" nr="24"/><polygon id="SvgjsPolygon1125" points="708.4166666666667,458.2524436414174 806.9166666666667,291.2762898199858 905.4166666666667,458.2524436414174" fill="#00ccdf" fill-opacity="0.1" stroke="#00ccdf" stroke-opacity="1" stroke-width="1" transform="matrix(-0.9945218953682733,0.10452846326765373,-0.10452846326765373,-0.9945218953682733,1648.5865424665378,663.129957394437)"/><polygon id="SvgjsPolygon1126" points="708.4166666666667,458.2524436414174 806.9166666666667,291.2762898199858 905.4166666666667,458.2524436414174" fill="transparent" fill-opacity="1" stroke="hsl(144.89999999999998, 99.9%, 43.7%)" stroke-opacity="0.4" stroke-width="1" transform="matrix(-1.0939740849051007,0.11498130959441911,-0.11498130959441911,-1.0939740849051007,1732.7535280120196,691.96651728183)"/><polygon id="SvgjsPolygon1127" points="708.4166666666667,458.2524436414174 806.9166666666667,291.2762898199858 905.4166666666667,458.2524436414174" fill="transparent" fill-opacity="1" stroke="hsl(164.89999999999998, 99.9%, 43.7%)" stroke-opacity="0.4" stroke-width="0.5" transform="matrix(-1.193426274441928,0.12543415592118448,-0.12543415592118448,-1.193426274441928,1816.9205135575016,720.8030771692229)"/></svg>